<svg id="visual" viewBox="0 0 900 450" width="900" height="450" xmlns="http://www.w3.org/2000/svg" xmlns:xlink="http://www.w3.org/1999/xlink" version="1.1"><path d="M0 156L13.7 158.8C27.3 161.7 54.7 167.3 82 174.7C109.3 182 136.7 191 163.8 198.2C191 205.3 218 210.7 245.2 202C272.3 193.3 299.7 170.7 327 161.2C354.3 151.7 381.7 155.3 409 162.3C436.3 169.3 463.7 179.7 491 186.2C518.3 192.7 545.7 195.3 573 191C600.3 186.7 627.7 175.3 654.8 177.8C682 180.3 709 196.7 736.2 195.8C763.3 195 790.7 177 818 167.8C845.3 158.7 872.7 158.3 886.3 158.2L900 158L900 451L886.3 451C872.7 451 845.3 451 818 451C790.7 451 763.3 451 736.2 451C709 451 682 451 654.8 451C627.7 451 600.3 451 573 451C545.7 451 518.3 451 491 451C463.7 451 436.3 451 409 451C381.7 451 354.3 451 327 451C299.7 451 272.3 451 245.2 451C218 451 191 451 163.8 451C136.7 451 109.3 451 82 451C54.7 451 27.3 451 13.7 451L0 451Z" fill="#4cd7f0"></path><path d="M0 235L13.7 232.7C27.3 230.3 54.7 225.7 82 228.5C109.3 231.3 136.7 241.7 163.8 241.5C191 241.3 218 230.7 245.2 232.5C272.3 234.3 299.7 248.7 327 247C354.3 245.3 381.7 227.7 409 224.5C436.3 221.3 463.7 232.7 491 234.2C518.3 235.7 545.7 227.3 573 224.8C600.3 222.3 627.7 225.7 654.8 229.7C682 233.7 709 238.3 736.2 235.7C763.3 233 790.7 223 818 224.7C845.3 226.3 872.7 239.7 886.3 246.3L900 253L900 451L886.3 451C872.7 451 845.3 451 818 451C790.7 451 763.3 451 736.2 451C709 451 682 451 654.8 451C627.7 451 600.3 451 573 451C545.7 451 518.3 451 491 451C463.7 451 436.3 451 409 451C381.7 451 354.3 451 327 451C299.7 451 272.3 451 245.2 451C218 451 191 451 163.8 451C136.7 451 109.3 451 82 451C54.7 451 27.3 451 13.7 451L0 451Z" fill="#00b7fb"></path><path d="M0 278L13.7 280.5C27.3 283 54.7 288 82 284.7C109.3 281.3 136.7 269.7 163.8 267.7C191 265.7 218 273.3 245.2 278.7C272.3 284 299.7 287 327 293.2C354.3 299.3 381.7 308.7 409 312.5C436.3 316.3 463.7 314.7 491 305.7C518.3 296.7 545.7 280.3 573 272.8C600.3 265.3 627.7 266.7 654.8 271C682 275.3 709 282.7 736.2 289.3C763.3 296 790.7 302 818 296.3C845.3 290.7 872.7 273.3 886.3 264.7L900 256L900 451L886.3 451C872.7 451 845.3 451 818 451C790.7 451 763.3 451 736.2 451C709 451 682 451 654.8 451C627.7 451 600.3 451 573 451C545.7 451 518.3 451 491 451C463.7 451 436.3 451 409 451C381.7 451 354.3 451 327 451C299.7 451 272.3 451 245.2 451C218 451 191 451 163.8 451C136.7 451 109.3 451 82 451C54.7 451 27.3 451 13.7 451L0 451Z" fill="#008ff8"></path><path d="M0 346L13.7 344.7C27.3 343.3 54.7 340.7 82 340C109.3 339.3 136.7 340.7 163.8 337.5C191 334.3 218 326.7 245.2 323.3C272.3 320 299.7 321 327 327C354.3 333 381.7 344 409 350.8C436.3 357.7 463.7 360.3 491 357.8C518.3 355.3 545.7 347.7 573 342.8C600.3 338 627.7 336 654.8 337.5C682 339 709 344 736.2 343C763.3 342 790.7 335 818 332C845.3 329 872.7 330 886.3 330.5L900 331L900 451L886.3 451C872.7 451 845.3 451 818 451C790.7 451 763.3 451 736.2 451C709 451 682 451 654.8 451C627.7 451 600.3 451 573 451C545.7 451 518.3 451 491 451C463.7 451 436.3 451 409 451C381.7 451 354.3 451 327 451C299.7 451 272.3 451 245.2 451C218 451 191 451 163.8 451C136.7 451 109.3 451 82 451C54.7 451 27.3 451 13.7 451L0 451Z" fill="#435fe2"></path><path d="M0 380L13.7 382.7C27.3 385.3 54.7 390.7 82 393.3C109.3 396 136.7 396 163.8 395.5C191 395 218 394 245.2 395.5C272.3 397 299.7 401 327 400C354.3 399 381.7 393 409 391.3C436.3 389.7 463.7 392.3 491 390.5C518.3 388.7 545.7 382.3 573 382.5C600.3 382.7 627.7 389.3 654.8 391.7C682 394 709 392 736.2 388.5C763.3 385 790.7 380 818 378.8C845.3 377.7 872.7 380.3 886.3 381.7L900 383L900 451L886.3 451C872.7 451 845.3 451 818 451C790.7 451 763.3 451 736.2 451C709 451 682 451 654.8 451C627.7 451 600.3 451 573 451C545.7 451 518.3 451 491 451C463.7 451 436.3 451 409 451C381.7 451 354.3 451 327 451C299.7 451 272.3 451 245.2 451C218 451 191 451 163.8 451C136.7 451 109.3 451 82 451C54.7 451 27.3 451 13.7 451L0 451Z" fill="#7209b7"></path></svg>